<svg xmlns="http://www.w3.org/2000/svg" viewBox="0 0 120.14 138.8"><defs><style>.cls-1{fill:#002d74;}.cls-2{fill:#fff;}</style></defs><g id="Layer_2" data-name="Layer 2"><g id="Layer_1-2" data-name="Layer 1"><path class="cls-1" d="M60.09,0,0,34.71v69.4L60.09,138.8l60.05-34.69V34.71Zm42.26,93.83L60.09,118.24,17.81,93.83V45l42.28-24.4L102.35,45Z"/><path class="cls-2" d="M60.09,138.8l60.05-34.69V34.71L60.09,0V20.59L102.35,45V93.85L60.09,118.24Z"/><path class="cls-2" d="M60.05,0,0,34.69v69.4L60.05,138.8V118.21L17.79,93.81V45L60.05,20.57Z"/><path class="cls-2" d="M88.12,85.62,60.07,101.81,32,85.62V53.21L60.07,37,88.12,53.21,76.44,60,60.07,50.49,43.7,60V78.85l16.37,9.47,16.37-9.47Z"/></g></g></svg>