<?xml version="1.0" standalone="no"?>
<!DOCTYPE svg PUBLIC "-//W3C//DTD SVG 20010904//EN"
 "http://www.w3.org/TR/2001/REC-SVG-20010904/DTD/svg10.dtd">
<svg version="1.0" xmlns="http://www.w3.org/2000/svg"
 width="750.000000pt" height="750.000000pt" viewBox="0 0 750.000000 750.000000"
 preserveAspectRatio="xMidYMid meet">
<metadata>
Created by potrace 1.14, written by Peter Selinger 2001-2017
</metadata>
<g transform="translate(0.000000,750.000000) scale(0.100000,-0.100000)"
fill="#000000" stroke="none">
<path d="M3617 7464 c-1 -1 -54 -5 -117 -9 -62 -3 -116 -8 -120 -9 -3 -2 -39
-7 -79 -10 -41 -4 -78 -9 -81 -11 -3 -2 -28 -6 -54 -10 -26 -3 -66 -9 -89 -15
-23 -5 -54 -11 -70 -14 -15 -2 -35 -7 -45 -10 -9 -3 -29 -7 -43 -10 -49 -8
-253 -65 -359 -99 -200 -66 -459 -180 -618 -274 -41 -24 -75 -43 -77 -43 -4 0
-107 -67 -121 -78 -5 -5 -21 -15 -35 -22 -68 -37 -354 -259 -465 -362 -109
-101 -224 -220 -304 -314 -119 -141 -340 -447 -340 -473 0 -5 -4 -11 -8 -13
-15 -6 -222 -390 -222 -412 0 -3 -13 -35 -30 -71 -16 -36 -30 -71 -30 -78 0
-7 -4 -17 -9 -23 -11 -12 -93 -264 -121 -374 -61 -240 -103 -466 -115 -627 -3
-37 -8 -88 -10 -113 -5 -55 -6 -354 -1 -430 6 -92 18 -224 22 -245 2 -11 7
-40 10 -65 5 -37 40 -230 48 -265 5 -20 17 -71 28 -115 189 -801 681 -1548
1348 -2049 158 -118 205 -151 218 -151 6 0 12 -4 14 -9 6 -16 253 -158 388
-223 74 -36 185 -84 245 -108 61 -23 119 -46 130 -51 57 -24 392 -115 485
-132 14 -3 74 -15 133 -26 60 -12 139 -24 175 -27 37 -4 70 -8 73 -10 11 -7
260 -18 389 -18 132 1 310 9 360 18 14 2 53 7 87 10 35 4 68 8 75 11 7 2 31 6
53 9 22 3 51 8 65 11 14 3 40 8 59 11 19 3 45 10 59 15 14 5 27 8 29 5 2 -2
31 4 64 14 32 10 59 17 59 15 0 -2 18 2 40 10 22 8 44 14 48 15 38 2 343 108
465 161 113 50 292 139 346 174 22 14 43 25 47 25 7 0 319 207 337 223 7 7 41
34 77 62 127 98 172 137 313 275 413 405 743 933 912 1460 23 71 41 134 70
240 4 15 43 188 51 225 14 69 35 186 39 220 2 22 6 58 9 80 21 162 27 524 12
700 -18 222 -74 523 -137 740 -11 39 -23 79 -25 90 -3 11 -9 29 -13 40 -5 11
-30 79 -56 150 -70 192 -137 334 -243 520 -109 190 -274 426 -411 585 -58 68
-277 290 -346 350 -22 19 -76 64 -120 100 -44 36 -81 68 -83 73 -2 4 -8 7 -13
7 -5 0 -37 22 -72 48 -332 256 -780 466 -1251 587 -106 27 -103 26 -220 50
-137 27 -161 31 -246 40 -25 2 -56 7 -69 9 -51 11 -505 28 -514 20z"/>
</g>
</svg>
